<svg width="64" height="64" viewBox="0 0 64 64" fill="none" xmlns="http://www.w3.org/2000/svg">
  <rect fill="#9ca3af" x="0.5" y="4.10571" width="61.1176" height="59.3944" rx="19.5" stroke="#534741"/>
  <rect fill="#d1d5db" x="4.26471" y="0.5" width="59.2353" height="56.6901" rx="19.5" stroke="#534741"/>
  <path fill="#03045E" d="M19.44 37.08L21.232 36.792V24.248L19.184 23.672V21.464L24.496 20.792L24.88 21.048L25.36 22.104V23.448C26.064 22.7653 27.0667 22.168 28.368 21.656C29.6907 21.1227 30.832 20.856 31.792 20.856C32.944 20.856 33.872 21.048 34.576 21.432C35.3013 21.816 35.8453 22.4133 36.208 23.224C36.912 22.584 37.84 22.0293 38.992 21.56C40.144 21.0907 41.2747 20.856 42.384 20.856C44.2827 20.856 45.6267 21.4107 46.416 22.52C47.2053 23.6293 47.6 25.4427 47.6 27.96V36.792L49.68 37.08V39H41.392V37.08L43.056 36.792V28.088C43.056 26.424 42.8533 25.2613 42.448 24.6C42.064 23.9173 41.3173 23.576 40.208 23.576C39.6107 23.576 38.992 23.7147 38.352 23.992C37.7333 24.248 37.1787 24.568 36.688 24.952C36.8373 25.7627 36.912 26.776 36.912 27.992V36.792L38.896 37.08V39H30.544V37.08L32.304 36.792V27.992C32.304 26.8827 32.2293 26.0187 32.08 25.4C31.952 24.76 31.696 24.3013 31.312 24.024C30.928 23.7253 30.3733 23.576 29.648 23.576C28.9653 23.576 28.2827 23.736 27.6 24.056C26.9387 24.3547 26.3413 24.7173 25.808 25.144V36.792L27.696 37.08V39H19.44V37.08Z"/>
  <path stroke="#6b7280" d="M50.5293 6L47 13.3749" strokeWidth="2" strokeLinecap="round"/>
  <path stroke="#6b7280" d="M55.745 10L53 15.7361" strokeWidth="2" strokeLinecap="round"/>
  <path stroke="#6b7280" d="M53.1372 8L50 14.5555" strokeWidth="2" strokeLinecap="round"/>
</svg>